# xmcd
#
# Track frame offsets: 
#        182
#        20890
#        32175
#        49500
#        67100
#        88170
#        109640
#        125600
#        141785
#        158880
#        175945
#        194610
#        215852
#        230832
#        246662
#        259795
#        278157
#        295497
#
# Disc length: 4191 seconds
#
# Revision: 3
# Processed by: cddbd v1.5.2PL0 Copyright (c) Steve Scherf et al.
# Submitted via: ExactAudioCopyFreeDBPlugin 1.0
#
DISCID=29105d12
DTITLE=Pussycat - Golden Stars - Pussycat
DYEAR=1992
DGENRE=Country
TTITLE0=Mississippi
TTITLE1=Georgie
TTITLE2=Smile
TTITLE3=My Broken Souvenirs
TTITLE4=I'll Be Your Woman
TTITLE5=If You Ever Come To Amsterdam
TTITLE6=It's The Same Old Song
TTITLE7=Wet Day In September
TTITLE8=Hey Joe
TTITLE9=Daddy
TTITLE10=Doin' La Bamba
TTITLE11=Then The Music Stopped
TTITLE12=Une Chambre Pour La Nuit
TTITLE13=Teenage Queenie
TTITLE14=Lovers Of A Kind
TTITLE15=If You Go
TTITLE16=Take A Look At Me
TTITLE17=Blue Lights In My Eyes
EXTD=
EXTT0=
EXTT1=
EXTT2=
EXTT3=
EXTT4=
EXTT5=
EXTT6=
EXTT7=
EXTT8=
EXTT9=
EXTT10=
EXTT11=
EXTT12=
EXTT13=
EXTT14=
EXTT15=
EXTT16=
EXTT17=
PLAYORDER=
